<svg width="1522" height="562" viewBox="0 0 1522 562" fill="none" xmlns="http://www.w3.org/2000/svg">
<path d="M475.7 168.4V209.5H389.9V253.9H454.1V293.8H389.9V379H338.6V168.4H475.7ZM528.463 194.2C519.463 194.2 512.063 191.6 506.263 186.4C500.663 181 497.863 174.4 497.863 166.6C497.863 158.6 500.663 152 506.263 146.8C512.063 141.4 519.463 138.7 528.463 138.7C537.263 138.7 544.463 141.4 550.063 146.8C555.863 152 558.763 158.6 558.763 166.6C558.763 174.4 555.863 181 550.063 186.4C544.463 191.6 537.263 194.2 528.463 194.2ZM553.963 211.6V379H502.663V211.6H553.963ZM693.139 209.8C712.739 209.8 728.339 216.2 739.939 229C751.739 241.6 757.639 259 757.639 281.2V379H706.639V288.1C706.639 276.9 703.739 268.2 697.939 262C692.139 255.8 684.339 252.7 674.539 252.7C664.739 252.7 656.939 255.8 651.139 262C645.339 268.2 642.439 276.9 642.439 288.1V379H591.139V211.6H642.439V233.8C647.639 226.4 654.639 220.6 663.439 216.4C672.239 212 682.139 209.8 693.139 209.8ZM844.588 235.3C849.588 227.5 856.488 221.2 865.288 216.4C874.088 211.6 884.388 209.2 896.188 209.2C909.988 209.2 922.488 212.7 933.688 219.7C944.888 226.7 953.688 236.7 960.088 249.7C966.688 262.7 969.988 277.8 969.988 295C969.988 312.2 966.688 327.4 960.088 340.6C953.688 353.6 944.888 363.7 933.688 370.9C922.488 377.9 909.988 381.4 896.188 381.4C884.588 381.4 874.288 379 865.288 374.2C856.488 369.4 849.588 363.2 844.588 355.6V458.8H793.288V211.6H844.588V235.3ZM917.788 295C917.788 282.2 914.188 272.2 906.988 265C899.988 257.6 891.288 253.9 880.888 253.9C870.688 253.9 861.988 257.6 854.788 265C847.788 272.4 844.288 282.5 844.288 295.3C844.288 308.1 847.788 318.2 854.788 325.6C861.988 333 870.688 336.7 880.888 336.7C891.088 336.7 899.788 333 906.988 325.6C914.188 318 917.788 307.8 917.788 295ZM1154.7 292.6C1154.7 297.4 1154.4 302.4 1153.8 307.6H1037.7C1038.5 318 1041.8 326 1047.6 331.6C1053.6 337 1060.9 339.7 1069.5 339.7C1082.3 339.7 1091.2 334.3 1096.2 323.5H1150.8C1148 334.5 1142.9 344.4 1135.5 353.2C1128.3 362 1119.2 368.9 1108.2 373.9C1097.2 378.9 1084.9 381.4 1071.3 381.4C1054.9 381.4 1040.3 377.9 1027.5 370.9C1014.7 363.9 1004.7 353.9 997.501 340.9C990.301 327.9 986.701 312.7 986.701 295.3C986.701 277.9 990.201 262.7 997.201 249.7C1004.4 236.7 1014.4 226.7 1027.2 219.7C1040 212.7 1054.7 209.2 1071.3 209.2C1087.5 209.2 1101.9 212.6 1114.5 219.4C1127.1 226.2 1136.9 235.9 1143.9 248.5C1151.1 261.1 1154.7 275.8 1154.7 292.6ZM1102.2 279.1C1102.2 270.3 1099.2 263.3 1093.2 258.1C1087.2 252.9 1079.7 250.3 1070.7 250.3C1062.1 250.3 1054.8 252.8 1048.8 257.8C1043 262.8 1039.4 269.9 1038 279.1H1102.2ZM1249.86 381.4C1235.26 381.4 1222.26 378.9 1210.86 373.9C1199.46 368.9 1190.46 362.1 1183.86 353.5C1177.26 344.7 1173.56 334.9 1172.76 324.1H1223.46C1224.06 329.9 1226.76 334.6 1231.56 338.2C1236.36 341.8 1242.26 343.6 1249.26 343.6C1255.66 343.6 1260.56 342.4 1263.96 340C1267.56 337.4 1269.36 334.1 1269.36 330.1C1269.36 325.3 1266.86 321.8 1261.86 319.6C1256.86 317.2 1248.76 314.6 1237.56 311.8C1225.56 309 1215.56 306.1 1207.56 303.1C1199.56 299.9 1192.66 295 1186.86 288.4C1181.06 281.6 1178.16 272.5 1178.16 261.1C1178.16 251.5 1180.76 242.8 1185.96 235C1191.36 227 1199.16 220.7 1209.36 216.1C1219.76 211.5 1232.06 209.2 1246.26 209.2C1267.26 209.2 1283.76 214.4 1295.76 224.8C1307.96 235.2 1314.96 249 1316.76 266.2H1269.36C1268.56 260.4 1265.96 255.8 1261.56 252.4C1257.36 249 1251.76 247.3 1244.76 247.3C1238.76 247.3 1234.16 248.5 1230.96 250.9C1227.76 253.1 1226.16 256.2 1226.16 260.2C1226.16 265 1228.66 268.6 1233.66 271C1238.86 273.4 1246.86 275.8 1257.66 278.2C1270.06 281.4 1280.16 284.6 1287.96 287.8C1295.76 290.8 1302.56 295.8 1308.36 302.8C1314.36 309.6 1317.46 318.8 1317.66 330.4C1317.66 340.2 1314.86 349 1309.26 356.8C1303.86 364.4 1295.96 370.4 1285.56 374.8C1275.36 379.2 1263.46 381.4 1249.86 381.4ZM1425.25 381.4C1408.85 381.4 1394.05 377.9 1380.85 370.9C1367.85 363.9 1357.55 353.9 1349.95 340.9C1342.55 327.9 1338.85 312.7 1338.85 295.3C1338.85 278.1 1342.65 263 1350.25 250C1357.85 236.8 1368.25 226.7 1381.45 219.7C1394.65 212.7 1409.45 209.2 1425.85 209.2C1442.25 209.2 1457.05 212.7 1470.25 219.7C1483.45 226.7 1493.85 236.8 1501.45 250C1509.05 263 1512.85 278.1 1512.85 295.3C1512.85 312.5 1508.95 327.7 1501.15 340.9C1493.55 353.9 1483.05 363.9 1469.65 370.9C1456.45 377.9 1441.65 381.4 1425.25 381.4ZM1425.25 337C1435.05 337 1443.35 333.4 1450.15 326.2C1457.15 319 1460.65 308.7 1460.65 295.3C1460.65 281.9 1457.25 271.6 1450.45 264.4C1443.85 257.2 1435.65 253.6 1425.85 253.6C1415.85 253.6 1407.55 257.2 1400.95 264.4C1394.35 271.4 1391.05 281.7 1391.05 295.3C1391.05 308.7 1394.25 319 1400.65 326.2C1407.25 333.4 1415.45 337 1425.25 337Z" fill="white"/>
<path d="M3.71341 160.718L228.722 10.3923C235.367 5.9529 244.277 10.7159 244.277 18.7073V155.341C244.277 158.698 242.592 161.832 239.791 163.683L168.135 211.042C165.58 212.73 162.392 213.155 159.484 212.194L235.358 237.268C239.454 238.621 242.221 242.449 242.221 246.763V400.596L17.577 551.534C10.9339 555.997 2 551.237 2 543.233V405.871C2 402.57 3.62922 399.482 6.35388 397.618L76.383 349.712C78.9609 347.949 82.2148 347.491 85.1791 348.475L10.5634 323.71C6.47371 322.353 3.71341 318.528 3.71341 314.219V160.718Z" fill="white"/>
<path d="M3.71341 160.718L228.722 10.3923C235.367 5.9529 244.277 10.7159 244.277 18.7073V155.341C244.277 158.698 242.592 161.832 239.791 163.683L168.135 211.042C165.58 212.73 162.392 213.155 159.484 212.194L3.71341 160.718ZM3.71341 160.718L235.358 237.268C239.454 238.621 242.221 242.449 242.221 246.763V400.596M3.71341 160.718V314.219C3.71341 318.528 6.47371 322.353 10.5634 323.71L242.221 400.596M242.221 400.596L17.577 551.534C10.9339 555.997 2 551.237 2 543.233V405.871C2 402.57 3.62922 399.482 6.35388 397.618L76.383 349.712C78.9609 347.949 82.2148 347.491 85.1791 348.475L242.221 400.596Z" stroke="#010A4C"/>
<line x1="233.533" y1="29.611" x2="177.333" y2="67.9914" stroke="#010A4C" stroke-width="2"/>
<line y1="-1" x2="97.3874" y2="-1" transform="matrix(-0.818392 0.57466 -0.562505 -0.826794 244.619 46.605)" stroke="#010A4C" stroke-width="2"/>
<line y1="-1" x2="102.261" y2="-1" transform="matrix(-0.818508 0.574495 -0.573984 -0.818866 244.151 74.7041)" stroke="#010A4C" stroke-width="2"/>
<line y1="-1" x2="88.8743" y2="-1" transform="matrix(-0.815778 0.578365 -0.570115 -0.821565 244.473 130.22)" stroke="#010A4C" stroke-width="2"/>
<line y1="-1" x2="71.3387" y2="-1" transform="matrix(-0.81244 0.583045 -0.601998 -0.798498 244.919 102.805)" stroke="#010A4C" stroke-width="2"/>
<circle cx="177.454" cy="67.8511" r="5.48293" fill="#010A4C"/>
<circle cx="168.544" cy="100.749" r="4.79756" fill="#010A4C"/>
<circle cx="160.319" cy="133.646" r="4.79756" fill="#010A4C"/>
<circle cx="186.706" cy="144.27" r="5.14024" fill="#010A4C"/>
<circle cx="175.054" cy="179.908" r="4.45488" fill="#010A4C"/>
<circle cx="97.9509" cy="217.946" r="4.79756" fill="#010A4C"/>
<circle cx="73.278" cy="230.283" r="4.79756" fill="#010A4C"/>
<circle cx="92.4685" cy="254.271" r="4.79756" fill="#010A4C"/>
<circle cx="74.6491" cy="261.124" r="4.79756" fill="#010A4C"/>
<circle cx="73.278" cy="279.629" r="4.79756" fill="#010A4C"/>
<circle cx="73.278" cy="323.493" r="4.79756" fill="#010A4C"/>
<circle cx="95.2097" cy="307.044" r="4.79756" fill="#010A4C"/>
<circle cx="163.747" cy="233.71" r="4.79756" fill="#010A4C"/>
<circle cx="171.97" cy="260.439" r="4.79756" fill="#010A4C"/>
<circle cx="163.061" cy="280.315" r="4.79756" fill="#010A4C"/>
<circle cx="146.612" cy="296.763" r="4.79756" fill="#010A4C"/>
<circle cx="159.634" cy="328.976" r="4.79756" fill="#010A4C"/>
<circle cx="171.286" cy="356.39" r="4.79756" fill="#010A4C"/>
<line x1="10.9935" y1="530.36" x2="72.2881" y2="484.247" stroke="#010A4C" stroke-width="2"/>
<line y1="-1" x2="109.292" y2="-1" transform="matrix(0.803411 -0.595425 0.541792 0.840513 2 511.283)" stroke="#010A4C" stroke-width="2"/>
<line y1="-1" x2="103.07" y2="-1" transform="matrix(0.799526 -0.600632 0.547867 0.836566 2.46777 483.184)" stroke="#010A4C" stroke-width="2"/>
<line y1="-1" x2="85.5415" y2="-1" transform="matrix(0.81598 -0.57808 0.5704 0.821367 2.44629 427.668)" stroke="#010A4C" stroke-width="2"/>
<line y1="-1" x2="70.6824" y2="-1" transform="matrix(0.802158 -0.597112 0.58794 0.808905 2 455.083)" stroke="#010A4C" stroke-width="2"/>
<ellipse cx="70.5364" cy="486.267" rx="4.79756" ry="5.14024" transform="rotate(180 70.5364 486.267)" fill="#010A4C"/>
<ellipse cx="85.9574" cy="448.229" rx="5.14024" ry="5.48293" transform="rotate(180 85.9574 448.229)" fill="#010A4C"/>
<ellipse cx="84.929" cy="421.157" rx="4.79756" ry="5.14024" transform="rotate(180 84.929 421.157)" fill="#010A4C"/>
<circle cx="58.5424" cy="412.933" r="5.14024" transform="rotate(180 58.5424 412.933)" fill="#010A4C"/>
<circle cx="69.1661" cy="379.693" r="4.1122" transform="rotate(180 69.1661 379.693)" fill="#010A4C"/>
<line y1="-1" x2="102.983" y2="-1" transform="matrix(0.93821 0.346066 -0.275292 0.961361 3.37109 183.678)" stroke="#010A4C" stroke-width="2"/>
<line y1="-1" x2="77.8042" y2="-1" transform="matrix(0.939136 0.343545 -0.273187 0.961961 3.37109 203.554)" stroke="#010A4C" stroke-width="2"/>
<line y1="-1" x2="77.8042" y2="-1" transform="matrix(0.939136 0.343545 -0.273187 0.961961 3.37109 254.271)" stroke="#010A4C" stroke-width="2"/>
<line y1="-1" x2="100.244" y2="-1" transform="matrix(0.939754 0.34185 -0.271774 0.962361 3.37109 273.461)" stroke="#010A4C" stroke-width="2"/>
<line y1="-1" x2="77.8042" y2="-1" transform="matrix(0.939136 0.343545 -0.273187 0.961961 3.37109 298.134)" stroke="#010A4C" stroke-width="2"/>
<line y1="-1" x2="96.0981" y2="-1" transform="matrix(0.942147 0.335201 -0.266238 0.963907 3.41309 223.429)" stroke="#010A4C" stroke-width="2"/>
<line y1="-1" x2="88.2356" y2="-1" transform="matrix(0.933989 0.357303 -0.286512 0.958077 159.547 233.71)" stroke="#010A4C" stroke-width="2"/>
<line y1="-1" x2="79.4798" y2="-1" transform="matrix(0.939778 0.341785 -0.211729 0.977328 167.63 259.935)" stroke="#010A4C" stroke-width="2"/>
<line y1="-1" x2="88.2356" y2="-1" transform="matrix(0.933989 0.357303 -0.286512 0.958077 159.547 280.314)" stroke="#010A4C" stroke-width="2"/>
<line y1="-1" x2="105.967" y2="-1" transform="matrix(0.932103 0.362193 -0.290643 0.956832 143.186 296.078)" stroke="#010A4C" stroke-width="2"/>
<line y1="-1" x2="92.6514" y2="-1" transform="matrix(0.935534 0.353237 -0.283085 0.959095 155.885 328.46)" stroke="#010A4C" stroke-width="2"/>
<line y1="-1" x2="79.4154" y2="-1" transform="matrix(0.938527 0.345205 -0.276332 0.961062 167.424 356.39)" stroke="#010A4C" stroke-width="2"/>
<line y1="-1" x2="17.801" y2="-1" transform="matrix(-0.271153 0.962536 -0.963387 -0.268114 57.9287 242.62)" stroke="#010A4C" stroke-width="2"/>
<line x1="53.4023" y1="260.125" x2="76.0194" y2="260.125" stroke="#010A4C" stroke-width="2"/>
</svg>
